<svg t="1655376624630" class="icon" viewBox="0 0 1024 1024" version="1.1" xmlns="http://www.w3.org/2000/svg" p-id="4275" width="200" height="200"><path d="M136.533604 0.00026a49.119975 49.119975 0 0 0-35.839982 15.359992C91.307627 25.600247 85.33463 38.40024 85.33463 51.200234v921.599532a49.119975 49.119975 0 0 0 15.359992 35.839982 50.545974 50.545974 0 0 0 35.839982 15.359992h750.931619a49.119975 49.119975 0 0 0 35.839981-15.359992 50.546974 50.546974 0 0 0 15.359993-35.839982V290.134113L648.533344 0.00026z" fill="#00B632" p-id="4276"></path><path d="M938.666197 290.133113H699.733318a52.492973 52.492973 0 0 1-51.199974-51.199974V0.00026z" fill="#7FDA98" p-id="4277"></path><path d="M448.515446 590.14996L260.081541 333.000091h130.243934l123.284938 184.069906L642.548347 333.000091h126.091936L575.952381 590.14996l202.305897 273.591861H646.713345l-135.909931-195.049901L375.240483 864.999821H246.258548z" fill="#FFFFFF" p-id="4278"></path></svg>