<svg t="1652537987182" class="icon" viewBox="0 0 1024 1024" version="1.1" xmlns="http://www.w3.org/2000/svg" p-id="13294" width="200" height="200"><path d="M211.992539 810.97913a425.984 425.984 0 1 0 602.421836-602.442865 425.984 425.984 0 1 0-602.421836 602.442865Z" fill="#00A0E9" p-id="13295"></path><path d="M383.5392 657.5616c-10.3936-18.8928-21.0944-38.4512-31.9488-58.112-1.9968 3.0208-4.0448 6.8096-6.8096 10.0352-5.888 6.8608-11.6224 14.0288-18.432 19.9168-5.9904 5.2224-11.4176 3.4304-14.592-4.0448-5.4272-12.9024-6.6048-26.6752-4.3008-40.192 5.7856-33.5872 22.0672-62.0032 45.1072-86.6816 3.0208-3.2256 4.096-6.3488 3.7376-10.5472-1.1776-13.9264-1.024-27.7504 5.0176-40.704 1.3824-3.0208 2.9184-6.5536 5.4272-8.2944 4.7104-3.328 5.1712-7.6288 5.4784-12.7488 1.5872-26.3168 6.7584-51.8144 19.3536-75.264 21.504-40.0384 56.064-62.0032 99.9424-68.4544 50.176-7.3728 93.696 7.3728 127.6928 45.9264 21.8112 24.7296 30.2592 55.0912 33.9456 87.1424 0.256 2.3552 0.512 4.7104 0.5632 7.1168 0.256 6.656 0.9216 12.3392 6.656 17.7664 6.8096 6.4 8.8064 16.2304 9.3696 25.6512 0.4608 7.8848-0.1536 15.8208 0.256 23.7056 0.1536 2.6112 1.28 5.7344 3.0208 7.68 23.3472 25.4976 40.192 54.528 45.9264 88.9344 2.0992 12.4416 0.8192 25.344-3.7888 37.4272-3.584 9.3696-9.3184 11.3152-16.7424 4.7616-6.2976-5.5296-11.52-12.3904-16.9472-18.8928-2.7136-3.2768-4.8128-7.1168-6.8608-10.1376-10.8032 19.6096-21.504 39.168-32.2048 58.6752 4.864 3.072 10.9568 6.4 16.384 10.496 9.7792 7.3216 15.8208 17.0496 16.7936 29.4912 1.024 13.4144-5.888 24.32-20.0704 31.3344-14.3872 7.0656-30.0032 8.704-45.6192 9.3696-22.6304 0.9728-44.5952-3.2256-65.3824-12.0832-7.1168-3.0208-13.568-8.0384-19.6096-12.9536-6.0416-4.864-18.0224-5.4272-23.5008 0.1024-10.9056 11.008-24.8832 15.6672-39.3216 19.5072-27.392 7.2704-54.7328 7.6288-82.0224-0.2048-2.816-0.8192-5.5808-1.9456-8.2944-3.1744-29.5424-13.4656-24.4224-41.9328-10.0864-56.064 6.7072-6.656 15.0528-11.4688 21.8624-16.4864z" fill="#FFFFFF" p-id="13296"></path></svg>